PathFileType	4	(X/Y/Z)	/Users/itak/Documents/Research/Walk-IL/dataset/trc/00251_00009.trc
DataRate	CameraRate	NumFrames	NumMarkers	Units	OrigDataRate	OrigDataStartFrame	OrigNumFrames
100.000000	100.000000	4	54	mm	100.000000	234	468
Frame#	Time	RPSI			LPSI			L3			STRN			T10			C7			CLAV			RBAK			LBAK			LSHO			LUPA			LAEL			LAOL			LWTS			LWPS			LFRA			LHPS			LHTS			RSHO			RUPA			RAEL			RAOL			RWTS			RWPS			RFRA			RHTS			RHPS			RBHD			LFHD			RFHD			LBHD			LHIP			RHIP			RASI			LASI			LKNE			LTHI			LANK			LTIP			LTOE			LMT1			LMT5			LHEE			RKNE			RTHI			RANK			RTIP			RTOE			RMT1			RMT5			RHEE			LIFD			RIFD			*53			
		X1	Y1	Z1	X2	Y2	Z2	X3	Y3	Z3	X4	Y4	Z4	X5	Y5	Z5	X6	Y6	Z6	X7	Y7	Z7	X8	Y8	Z8	X9	Y9	Z9	X10	Y10	Z10	X11	Y11	Z11	X12	Y12	Z12	X13	Y13	Z13	X14	Y14	Z14	X15	Y15	Z15	X16	Y16	Z16	X17	Y17	Z17	X18	Y18	Z18	X19	Y19	Z19	X20	Y20	Z20	X21	Y21	Z21	X22	Y22	Z22	X23	Y23	Z23	X24	Y24	Z24	X25	Y25	Z25	X26	Y26	Z26	X27	Y27	Z27	X28	Y28	Z28	X29	Y29	Z29	X30	Y30	Z30	X31	Y31	Z31	X32	Y32	Z32	X33	Y33	Z33	X34	Y34	Z34	X35	Y35	Z35	X36	Y36	Z36	X37	Y37	Z37	X38	Y38	Z38	X39	Y39	Z39	X40	Y40	Z40	X41	Y41	Z41	X42	Y42	Z42	X43	Y43	Z43	X44	Y44	Z44	X45	Y45	Z45	X46	Y46	Z46	X47	Y47	Z47	X48	Y48	Z48	X49	Y49	Z49	X50	Y50	Z50	X51	Y51	Z51	X52	Y52	Z52	X53	Y53	Z53	X54	Y54	Z54	

235	2.34	-754.82275390625	1031.798828125	-190.1366424560547	-688.6485595703125	1034.476806640625	-290.9080810546875	-712.0682373046875	1124.524047851562	-256.272216796875	-504.3017883300781	1309.648193359375	-110.4676895141602	-716.697509765625	1251.287109375	-254.0204772949219	-661.4991455078125	1511.263549804688	-219.4579772949219	-524.5199584960938	1428.858032226562	-122.1181640625	-764.101318359375	1373.330444335938	-200.7702331542969	-613.671875	1476.91552734375	-322.547119140625	-508.9645385742188	1477.306030273438	-315.3788146972656	-490.7909851074219	1361.71875	-399.6783447265625	-465.8688049316406	1152.978393554688	-420.7658081054688	-551.6632080078125	1140.09814453125	-437.1266784667969	-451.9541320800781	918.65869140625	-311.611083984375	-406.5263977050781	907.4657592773438	-383.9507751464844	-441.80419921875	1044.383666992188	-414.0077209472656	-389.0959777832031	823.260009765625	-372.8018188476562	-403.4624633789062	819.1240844726562	-305.5440063476562	-710.3916625976562	1477.04541015625	-46.7032356262207	-767.1863403320312	1416.064819335938	-2.532592535018921	-830.1922607421875	1139.16162109375	11.51379013061523	-799.5562133789062	1130.654052734375	-78.47917175292969	-709.7203369140625	918.9879760742188	69.75462341308594	-792.8395385742188	908.4244995117188	83.97605895996094	-822.2886962890625	1070.180908203125	38.60336303710938	-696.6478881835938	796.94970703125	105.711540222168	-768.9056396484375	800.2686157226562	109.8180999755859	-654.2740478515625	1660.387939453125	-174.6825714111328	-454.8040161132812	1709.71923828125	-78.28401947021484	-531.585693359375	1703.754760742188	-14.4364013671875	-523.8240356445312	1674.045043945312	-224.0573577880859	-529.3929443359375	974.2470703125	-352.0280151367188	-728.7802734375	996.2816772460938	-46.53448104858398	-629.189453125	1039.081298828125	-25.06720733642578	-469.3128051757812	1020.574768066406	-255.7296142578125	-423.864013671875	497.5055541992188	-272.9626159667969	-442.1504821777344	640.677001953125	-302.1511840820312	-772.3021850585938	198.4617919921875	-447.6817932128906	-579.19775390625	353.3820495605469	-360.4808349609375	-643.6718139648438	57.96852493286133	-350.2905578613281	-710.9659423828125	93.65237426757812	-324.3340148925781	-686.7944946289062	107.0670852661133	-438.1780395507812	-823.2235717773438	246.1613006591797	-410.8955993652344	-586.7788696289062	515.5735473632812	-44.25308227539062	-651.646484375	777.7045288085938	-1.916385769844055	-613.5691528320312	36.49497604370117	-146.4645080566406	-560.72021484375	394.28759765625	-59.76247787475586	-425.6251831054688	48.16532897949219	-40.92748641967773	-439.6355285644531	41.30750274658203	-110.0376358032227	-545.8387451171875	42.5818977355957	-57.31155395507812	-621.2283325195312	33.07610321044922	-231.7185516357422	-420.9853210449219	723.6802978515625	-327.1869506835938	-704.989990234375	724.4063720703125	73.93868255615234	nan	nan	nan	
236	2.35	-748.8519897460938	1032.702758789062	-187.8759155273438	-681.9717407226562	1035.375366210938	-288.1721496582031	-705.7676391601562	1125.555053710938	-253.2953796386719	-498.3073425292969	1310.309326171875	-106.2699432373047	-710.38330078125	1252.293823242188	-250.6198577880859	-654.8650512695312	1512.1708984375	-215.6484832763672	-518.2835693359375	1429.5166015625	-118.0080261230469	-757.7478637695312	1374.39794921875	-197.2587585449219	-606.8543090820312	1477.740478515625	-318.5487670898438	-502.1134338378906	1477.96484375	-311.2738037109375	-484.4846496582031	1362.330078125	-395.7422180175781	-461.2081298828125	1153.514770507812	-417.2295532226562	-547.1466064453125	1141.230346679688	-432.9835205078125	-448.2697448730469	917.8404541015625	-310.6878356933594	-403.6562194824219	907.1910400390625	-383.3676452636719	-437.971923828125	1044.66259765625	-411.6907958984375	-386.6721801757812	822.77587890625	-373.4605407714844	-400.5224609375	817.8609619140625	-306.1647338867188	-704.3001098632812	1478.057983398438	-43.10062408447266	-761.2704467773438	1417.151123046875	0.9929284453392029	-824.0820922851562	1140.119506835938	15.56961822509766	-793.623779296875	1131.48876953125	-74.49649810791016	-701.433349609375	921.416015625	74.86193084716797	-784.4485473632812	909.9892578125	89.08570098876953	-815.6339721679688	1071.2294921875	42.97607040405273	-686.9708862304688	799.8618774414062	111.6852951049805	-759.2594604492188	802.3213500976562	115.6569290161133	-647.3292846679688	1661.378784179688	-170.9766540527344	-448.2628173828125	1710.125854492188	-73.52116394042969	-525.3931884765625	1704.347045898438	-10.07839488983154	-516.5974731445312	1674.721313476562	-219.6688995361328	-522.5516967773438	975.4505004882812	-347.782958984375	-724.4267578125	996.8290405273438	-44.04182052612305	-625.1132202148438	1039.850708007812	-21.33347702026367	-462.9764709472656	1021.490051269531	-250.7015533447266	-410.22900390625	500.6983337402344	-262.4806213378906	-430.437255859375	643.0745239257812	-293.7906494140625	-749.7608642578125	194.4717254638672	-441.2557373046875	-561.444091796875	353.6026306152344	-351.7909851074219	-618.7341918945312	57.96982955932617	-341.4476013183594	-687.264404296875	91.84812927246094	-316.7345581054688	-661.6181640625	105.7910308837891	-430.2733154296875	-802.7014770507812	240.6866912841797	-405.4639587402344	-585.4503173828125	515.31103515625	-43.38943862915039	-648.67578125	777.6015014648438	0.09293857216835022	-613.5724487304688	36.56300735473633	-146.5375061035156	-559.8502807617188	394.0615844726562	-59.20818328857422	-425.5804443359375	48.15520095825195	-41.05501556396484	-439.61376953125	41.24322891235352	-110.1506118774414	-545.7852172851562	42.65251159667969	-57.38118743896484	-621.2761840820312	33.048828125	-231.7826843261719	-418.8661193847656	722.8281860351562	-328.9061279296875	-694.2767333984375	727.1289672851562	80.36475372314453	nan	nan	nan	
237	2.36	-742.8859252929688	1033.569702148438	-185.6375885009766	-675.2955322265625	1036.2568359375	-285.4406127929688	-699.4347534179688	1126.536865234375	-250.3139038085938	-492.3366394042969	1310.929809570312	-102.0528411865234	-704.0889282226562	1253.225219726562	-247.2296142578125	-648.2510375976562	1513.0146484375	-211.8329772949219	-512.0791015625	1430.131103515625	-113.8799743652344	-751.4237060546875	1375.392333984375	-193.7556915283203	-600.0759887695312	1478.498657226562	-314.5426940917969	-495.3007507324219	1478.58251953125	-307.1585693359375	-478.1893005371094	1362.912719726562	-391.8224792480469	-456.5024108886719	1154.052856445312	-413.8619995117188	-542.6151123046875	1142.291137695312	-428.8621826171875	-444.2363586425781	917.1223754882812	-309.7882995605469	-400.639404296875	906.9546508789062	-382.8833923339844	-434.065673828125	1044.974487304688	-409.4956970214844	-384.2229614257812	822.311767578125	-374.2134704589844	-397.4112243652344	816.6622924804688	-306.8442687988281	-698.2459106445312	1479.007080078125	-39.49992752075195	-755.407470703125	1418.172485351562	4.503602981567383	-818.0081176757812	1141.0068359375	19.56594276428223	-787.67431640625	1132.257568359375	-70.5546875	-693.2015380859375	923.8291625976562	79.92230224609375	-776.0789794921875	911.5104370117188	94.11382293701172	-809.0234375	1072.209228515625	47.26889419555664	-677.2947998046875	802.7736206054688	117.5925598144531	-749.6152954101562	804.34228515625	121.3891143798828	-640.4254760742188	1662.321044921875	-167.2372436523438	-441.7561950683594	1710.476196289062	-68.75302124023438	-519.23193359375	1704.881225585938	-5.705452442169189	-509.4257202148438	1675.35302734375	-215.2643737792969	-515.4573364257812	976.624755859375	-343.4235534667969	-720.0963745117188	997.3236694335938	-41.59309005737305	-621.1149291992188	1040.558837890625	-17.59777641296387	-456.6490783691406	1022.382629394531	-245.6398773193359	-397.14794921875	503.9281311035156	-251.8349761962891	-419.0786437988281	645.4856567382812	-285.3398132324219	-726.4800415039062	189.358154296875	-434.3706665039062	-543.6826171875	353.4003601074219	-342.8460388183594	-593.067138671875	57.65388107299805	-331.3963012695312	-662.8822631835938	89.59563446044922	-308.264404296875	-635.6805419921875	103.7376098632812	-421.3838500976562	-781.56591796875	234.021484375	-399.8602600097656	-584.1876220703125	515.0277709960938	-42.52370071411133	-645.789794921875	777.4696044921875	2.063152074813843	-613.5735473632812	36.61886596679688	-146.6011657714844	-559.0164184570312	393.8239440917969	-58.63852691650391	-425.5439758300781	48.13251495361328	-41.14606094360352	-439.5957641601562	41.17934799194336	-110.2356414794922	-545.751708984375	42.69798278808594	-57.42928314208984	-621.3177490234375	33.03416061401367	-231.8451690673828	-416.8063659667969	722.0958862304688	-330.5668334960938	-683.525634765625	729.8525390625	86.70079040527344	nan	nan	nan	
238	2.37	-736.9103393554688	1034.390258789062	-183.4155120849609	-668.6029663085938	1037.105712890625	-282.7046813964844	-693.0780029296875	1127.47216796875	-247.3326416015625	-486.3888244628906	1311.490112304688	-97.81591796875	-697.8284912109375	1254.077758789062	-243.8517456054688	-641.6465454101562	1513.788330078125	-208.0054626464844	-505.90283203125	1430.691284179688	-109.7271881103516	-745.1241455078125	1376.3095703125	-190.2598266601562	-593.3223876953125	1479.182861328125	-310.5227661132812	-488.5206909179688	1479.1435546875	-303.0234375	-471.8951110839844	1363.456298828125	-387.9103698730469	-451.7326354980469	1154.581420898438	-410.6377563476562	-538.041259765625	1143.279907226562	-424.7765808105469	-439.8893737792969	916.4846801757812	-308.8622131347656	-397.4617919921875	906.7484130859375	-382.46240234375	-430.0640258789062	1045.309448242188	-407.3930053710938	-381.7274169921875	821.86572265625	-375.014404296875	-394.1397705078125	815.5177612304688	-307.5429077148438	-692.2228393554688	1479.881103515625	-35.89398956298828	-749.5859985351562	1419.1162109375	8.006571769714355	-811.966796875	1141.813720703125	23.51500129699707	-781.690673828125	1132.94970703125	-66.63484191894531	-685.0433959960938	926.206787109375	84.91628265380859	-767.7413330078125	912.9697875976562	99.05580902099609	-802.4524536132812	1073.108276367188	51.49090957641602	-667.6381225585938	805.6641845703125	123.4149856567383	-739.9877319335938	806.3146362304688	127.0065460205078	-633.562255859375	1663.195922851562	-163.4653472900391	-435.2905883789062	1710.77978515625	-63.97703552246094	-513.1075439453125	1705.359252929688	-1.318475604057312	-502.3077087402344	1675.931396484375	-210.8427429199219	-508.0533752441406	977.7523193359375	-338.9273681640625	-715.7833251953125	997.764892578125	-39.18788909912109	-617.1632690429688	1041.193725585938	-13.88805103302002	-450.3245239257812	1023.24462890625	-240.5419006347656	-384.6277160644531	507.1529846191406	-241.0667724609375	-408.0711975097656	647.8896484375	-276.826416015625	-702.5005493164062	183.2280120849609	-426.9424133300781	-525.928955078125	352.7887268066406	-333.6385192871094	-566.7776489257812	57.12532043457031	-320.1441040039062	-637.9264526367188	86.97869873046875	-298.8793640136719	-609.0703735351562	101.014045715332	-411.4573669433594	-759.8201904296875	226.2607116699219	-393.9820251464844	-582.972900390625	514.726318359375	-41.6523323059082	-642.9683227539062	777.312744140625	3.999663114547729	-613.5709228515625	36.66360092163086	-146.6583557128906	-558.2037353515625	393.5723266601562	-58.05401611328125	-425.5146179199219	48.09854507446289	-41.20494842529297	-439.5822448730469	41.11415863037109	-110.2961959838867	-545.7359619140625	42.72077560424805	-57.45822525024414	-621.3505249023438	33.02872467041016	-231.9062805175781	-414.7789916992188	721.4682006835938	-332.1318969726562	-672.7647705078125	732.5543823242188	92.92988586425781	nan	nan	nan	
